<?xml version="1.0" standalone="no"?><!DOCTYPE svg PUBLIC "-//W3C//DTD SVG 1.1//EN" "http://www.w3.org/Graphics/SVG/1.1/DTD/svg11.dtd"><svg t="1752071470999" class="icon" viewBox="0 0 1024 1024" version="1.1" xmlns="http://www.w3.org/2000/svg" p-id="2467" xmlns:xlink="http://www.w3.org/1999/xlink" width="200" height="200"><path d="M640 725.333333v53.333334a157.354667 157.354667 0 0 0 144.597333 159.744L793.6 938.666667H230.4A104.618667 104.618667 0 0 1 128 832V725.333333z m256 53.333334a102.4 102.4 0 1 1-204.8 0v-106.666667H230.4V138.666667A52.309333 52.309333 0 0 1 281.6 85.333333h563.2A52.309333 52.309333 0 0 1 896 138.666667zM768 405.333333H358.4a26.026667 26.026667 0 0 0-25.6 24.277334 26.496 26.496 0 0 0 20.949333 28.629333l4.608 0.426667h409.6a26.709333 26.709333 0 0 0 0-53.333334z m0-160H358.4a26.026667 26.026667 0 0 0-25.6 24.277334 26.496 26.496 0 0 0 20.949333 28.629333l4.608 0.426667h409.6a26.709333 26.709333 0 0 0 0-53.333334z" fill="#d81e06" p-id="2468"></path></svg>